<svg t="1745940218722" class="icon" viewBox="0 0 1024 1024" version="1.1" xmlns="http://www.w3.org/2000/svg" p-id="7980" width="200" height="200"><path d="M798.72 887.296c-22.016-1.024-38.4-18.432-37.888-38.912 1.024-20.48 18.944-36.352 40.96-36.352 22.016 0.512 39.424 16.896 39.424 37.888 0 10.24-4.608 19.968-12.8 27.136-8.192 6.656-18.944 10.752-29.696 10.24m-136.704 0c-22.016-1.024-38.4-18.432-37.888-38.912 1.024-20.48 18.944-36.352 40.96-36.352 22.016 0.512 39.424 16.896 39.424 37.888 0 10.24-4.608 19.968-12.8 27.136-8.192 6.656-18.944 10.752-29.696 10.24zM174.08 812.544h240.128v74.752H174.08v-74.752z m-65.024-90.112h-71.68v209.92c0 12.288 5.632 24.576 15.36 32.768 9.728 8.704 23.04 12.8 36.352 12.288h855.04c13.312 0.512 26.112-4.096 35.84-12.288 9.728-8.192 15.36-19.968 15.872-32.768v-209.92H109.056z m691.2-480.256c-23.552 1.536-44.032-14.336-46.592-35.84 1.024-20.992 18.432-37.888 40.96-38.912 22.528-0.512 41.472 15.36 44.544 35.84-0.512 20.48-17.408 37.376-38.912 38.912z m-136.704 0c-15.36 0.512-30.208-6.144-39.424-17.92-7.68-11.776-7.68-26.112 0-37.888 9.728-14.336 28.16-22.016 46.08-18.432s31.744 17.408 34.304 34.304c0.512 10.24-3.584 20.48-11.264 28.16-7.68 8.192-18.432 12.288-29.696 11.776zM174.08 166.912h240.128v75.264H174.08V166.912zM923.648 76.8H110.592c-38.4-1.024-70.144 27.136-72.192 62.976v192.512H998.4V139.776c-3.072-36.352-35.84-64-74.752-62.976zM174.08 497.152h240.128v74.752H174.08V497.152z m485.888 0c16.896-0.512 32.256 8.192 39.424 22.528 7.168 13.824 3.584 30.208-8.192 40.448-12.8 10.24-30.208 13.824-46.08 9.216-15.872-5.12-26.624-18.944-27.648-34.304 1.536-20.992 19.968-37.376 42.496-37.888z m136.704 0c22.528-0.512 41.472 15.36 44.544 35.84-1.024 20.992-18.432 37.888-40.96 38.912-22.528 0.512-41.472-14.848-44.544-35.84 0.512-20.992 18.432-38.4 40.96-38.912zM37.376 662.016h956.416V407.04H33.792l3.584 254.976z m0 0" p-id="7981"></path></svg>