<svg t="1745940193390" class="icon" viewBox="0 0 1024 1024" version="1.1" xmlns="http://www.w3.org/2000/svg" p-id="6092" width="200" height="200"><path d="M85.333333 597.333333V181.333333a53.393333 53.393333 0 0 1 53.333334-53.333333h746.666666a53.393333 53.393333 0 0 1 53.333334 53.333333v416z m0 42.666667v74.666667a53.393333 53.393333 0 0 0 53.333334 53.333333h266c-4.48 73.686667-31.9 108.213333-50.953334 128H320a21.333333 21.333333 0 0 0 0 42.666667h384a21.333333 21.333333 0 0 0 0-42.666667h-33.746667c-19.053333-19.786667-46.473333-54.313333-50.953333-128h266a53.393333 53.393333 0 0 0 53.333333-53.333333V640z" fill="#5C5C66" p-id="6093"></path></svg>