<svg t="1746079709301" class="icon" viewBox="0 0 1024 1024" version="1.1" xmlns="http://www.w3.org/2000/svg" p-id="29203" width="200" height="200"><path d="M512 881.777778c-204.231111 0-369.777778-165.546667-369.777778-369.777778S307.768889 142.222222 512 142.222222s369.777778 165.546667 369.777778 369.777778-165.546667 369.777778-369.777778 369.777778z m0-881.777778a28.444444 28.444444 0 0 1 28.444444 28.444444v56.888889a28.444444 28.444444 0 0 1-56.888888 0V28.444444a28.444444 28.444444 0 0 1 28.444444-28.444444z m362.040889 149.959111a28.444444 28.444444 0 0 1 0 40.220445l-40.220445 40.248888a28.444444 28.444444 0 0 1-40.248888-40.248888l40.248888-40.220445a28.444444 28.444444 0 0 1 40.220445 0zM1024 512a28.444444 28.444444 0 0 1-28.444444 28.444444h-56.888889a28.444444 28.444444 0 0 1 0-56.888888h56.888889a28.444444 28.444444 0 0 1 28.444444 28.444444z m-149.959111 362.040889a28.444444 28.444444 0 0 1-40.220445 0l-40.248888-40.220445a28.444444 28.444444 0 0 1 40.248888-40.248888l40.220445 40.248888a28.444444 28.444444 0 0 1 0 40.220445zM512 1024a28.444444 28.444444 0 0 1-28.444444-28.444444v-56.888889a28.444444 28.444444 0 0 1 56.888888 0v56.888889a28.444444 28.444444 0 0 1-28.444444 28.444444zM149.959111 874.040889a28.444444 28.444444 0 0 1 0-40.220445l40.220445-40.248888a28.444444 28.444444 0 1 1 40.248888 40.248888l-40.248888 40.220445a28.444444 28.444444 0 0 1-40.220445 0zM0 512a28.444444 28.444444 0 0 1 28.444444-28.444444h56.888889a28.444444 28.444444 0 0 1 0 56.888888H28.444444a28.444444 28.444444 0 0 1-28.444444-28.444444zM149.959111 149.959111a28.444444 28.444444 0 0 1 40.220445 0l40.248888 40.220445a28.444444 28.444444 0 1 1-40.248888 40.248888L149.959111 190.179556a28.444444 28.444444 0 0 1 0-40.220445z" fill="#333333" p-id="29204"></path></svg>