<svg t="1745940317040" class="icon" viewBox="0 0 1129 1024" version="1.1" xmlns="http://www.w3.org/2000/svg" p-id="13265" width="200" height="200"><path d="M1127.3216 682.82368l-464.6912 23.51104a20.48 20.48 0 0 0-19.16928 17.5104c-3.72736 23.67488-18.80064 64.36864-77.70112 64.22528-56.13568-0.14336-71.86432-41.30816-76.34944-65.1264a21.1968 21.1968 0 0 0-19.61984-17.5104l-460.8-22.528c-2.70336 0-8.99072-0.45056-8.99072 2.2528v185.93792A153.47712 153.47712 0 0 0 153.02656 1024H983.06048a146.82112 146.82112 0 0 0 146.86208-146.86208V685.056c-0.06144-2.68288 0.1024-2.23232-2.60096-2.23232zM974.62272 138.17856H764.12928v-20.04992A118.45632 118.45632 0 0 0 646.00064 0h-162.11968a118.45632 118.45632 0 0 0-118.10816 118.12864v20.04992H156.4672A156.85632 156.85632 0 0 0 0.02048 294.62528v322.62144c0 2.70336 6.28736 8.68352 8.99072 8.68352l456.704 22.75328a20.82816 20.82816 0 0 0 15.42144-5.69344 20.60288 20.60288 0 0 0 6.43072-15.11424v-37.41696c0-41.32864 33.83296-76.94336 74.99776-76.06272 42.51648 0.90112 79.33952 35.9424 79.33952 78.60224v34.816a20.72576 20.72576 0 0 0 21.85216 20.80768l463.50336-22.75328c2.70336 0 2.53952-5.98016 2.53952-8.68352V293.43744a155.648 155.648 0 0 0-155.17696-155.25888z m-529.5104-20.04992c0-23.51104 14.21312-48.20992 37.72416-48.20992H653.33248c23.51104 0 40.57088 24.69888 40.57088 48.20992v16.15872H445.11232z" p-id="13266"></path></svg>